<svg viewBox="0 0 980 910" role="img" aria-label="묵주기도 앱의 유저 플로. 앱을 열면 저장된 자리 유무에 따라 홈이 두 상태로 갈리고, 기도 화면에서 침묵 진행 여부에 따라 소리 낭송과 진동 진행으로 갈리며, 알마다 받는 사이를 두고 제5단 10번째 알까지 반복한 뒤 완주 화면으로 간다. 중단하면 자리를 저장하거나 지우고 홈으로 돌아간다." fill="none" stroke="currentColor">
          <defs>
            <marker id="ar" viewBox="0 0 10 10" refX="9" refY="5" markerWidth="7" markerHeight="7" orient="auto-start-reverse">
              <path d="M 0 1 L 9 5 L 0 9 z" fill="currentColor" stroke="none"></path>
            </marker>
          </defs>
          <g stroke-width="1.4" stroke-linejoin="round">
            <rect x="330" y="20" width="180" height="42" rx="21" fill="currentColor" fill-opacity="0.07"></rect>
            <polygon points="420,78 542,122 420,166 298,122" fill="currentColor" fill-opacity="0.04"></polygon>
            <rect x="120" y="196" width="240" height="56" rx="3" fill="currentColor" fill-opacity="0.07"></rect>
            <rect x="500" y="196" width="240" height="56" rx="3" fill="currentColor" fill-opacity="0.07"></rect>
            <rect x="750" y="196" width="185" height="104" rx="3" fill="currentColor" fill-opacity="0.07"></rect>
            <rect x="300" y="316" width="240" height="56" rx="3" fill="currentColor" fill-opacity="0.07"></rect>
            <polygon points="420,406 552,452 420,498 288,452" fill="currentColor" fill-opacity="0.04"></polygon>
            <rect x="75" y="530" width="230" height="54" rx="3" fill="currentColor" fill-opacity="0.07"></rect>
            <rect x="535" y="530" width="230" height="54" rx="3" fill="currentColor" fill-opacity="0.07"></rect>
            <rect x="290" y="618" width="260" height="54" rx="3" fill="currentColor" fill-opacity="0.07"></rect>
            <polygon points="420,690 562,736 420,782 278,736" fill="currentColor" fill-opacity="0.04"></polygon>
            <rect x="310" y="820" width="220" height="52" rx="26" fill="currentColor" fill-opacity="0.07"></rect>

            <line x1="420" y1="62" x2="420" y2="76" marker-end="url(#ar)"></line>
            <polyline points="298,122 240,122 240,194" marker-end="url(#ar)"></polyline>
            <polyline points="542,122 620,122 620,194" marker-end="url(#ar)"></polyline>
            <polyline points="240,252 240,286 420,286 420,314" marker-end="url(#ar)"></polyline>
            <polyline points="620,252 620,286 424,286"></polyline>
            <line x1="420" y1="372" x2="420" y2="404" marker-end="url(#ar)"></line>
            <polyline points="288,452 190,452 190,528" marker-end="url(#ar)"></polyline>
            <polyline points="552,452 650,452 650,528" marker-end="url(#ar)"></polyline>
            <polyline points="190,584 190,600 420,600 420,616" marker-end="url(#ar)"></polyline>
            <polyline points="650,584 650,600 424,600"></polyline>
            <line x1="420" y1="672" x2="420" y2="688" marker-end="url(#ar)"></line>
            <polyline points="562,736 940,736 940,394 424,394" marker-end="url(#ar)" stroke-dasharray="5 4"></polyline>
            <line x1="420" y1="782" x2="420" y2="818" marker-end="url(#ar)"></line>
            <polyline points="310,846 50,846 50,224 118,224" marker-end="url(#ar)" stroke-dasharray="5 4"></polyline>
            <polyline points="540,344 842,344 842,302" marker-end="url(#ar)"></polyline>
            <polyline points="842,196 842,140 494,140" marker-end="url(#ar)" stroke-dasharray="5 4"></polyline>
            <circle cx="420" cy="394" r="3.5" fill="currentColor" stroke="none"></circle>
            <circle cx="420" cy="286" r="3.5" fill="currentColor" stroke="none"></circle>
            <circle cx="420" cy="600" r="3.5" fill="currentColor" stroke="none"></circle>
          </g>
          <g fill="currentColor" stroke="none" font-family="'IBM Plex Sans KR', sans-serif" font-size="13" text-anchor="middle">
            <text x="420" y="46">앱을 연다</text>
            <text x="420" y="118">저장된 자리가</text>
            <text x="420" y="134">있나?</text>
            <text x="240" y="219">홈 · 상태 A</text>
            <text x="240" y="238" font-size="11.5" fill-opacity="0.72">이어가기 카드 없음</text>
            <text x="620" y="219">홈 · 상태 B</text>
            <text x="620" y="238" font-size="11.5" fill-opacity="0.72">이어가기 카드 있음</text>
            <text x="842" y="222">중단</text>
            <text x="842" y="244" font-size="11.5" fill-opacity="0.72">잠시 멈춤 · 앱 종료 · 전화</text>
            <text x="842" y="260" font-size="11.5" fill-opacity="0.72">→ 자리 저장</text>
            <text x="842" y="284" font-size="11.5" fill-opacity="0.72">여기서 끝내기 → 자리 삭제</text>
            <text x="420" y="341">기도 화면</text>
            <text x="420" y="359" font-size="11.5" fill-opacity="0.72">단 · 알 번호 · 앞 절 · 뒷 절</text>
            <text x="420" y="448">침묵 진행이</text>
            <text x="420" y="464">켜져 있나?</text>
            <text x="190" y="552">앱이 앞 절을 읽는다</text>
            <text x="190" y="570" font-size="11.5" fill-opacity="0.72">소리 모드</text>
            <text x="650" y="552">짧은 진동 한 번</text>
            <text x="650" y="570" font-size="11.5" fill-opacity="0.72">침묵 모드 · 소리 없음</text>
            <text x="420" y="640">받는 사이 동안 기다린다</text>
            <text x="420" y="658" font-size="11.5" fill-opacity="0.72">침묵 모드는 앞 절 몫까지 길어진다</text>
            <text x="420" y="732">제5단 10번째</text>
            <text x="420" y="748">알인가?</text>
            <text x="420" y="852">완주 화면</text>
          </g>
          <g fill="currentColor" stroke="none" font-family="'IBM Plex Mono', monospace" font-size="11" fill-opacity="0.8">
            <text x="268" y="112" text-anchor="middle">없음</text>
            <text x="574" y="112" text-anchor="middle">있음</text>
            <text x="250" y="273">시작 단추</text>
            <text x="610" y="273" text-anchor="end">이어가기 카드 · 또는 시작 단추</text>
            <text x="222" y="446" text-anchor="end">꺼짐</text>
            <text x="620" y="446" text-anchor="end">켜짐</text>
            <text x="700" y="386" text-anchor="middle">아니오 · 다음 알</text>
            <text x="432" y="806">예</text>
            <text x="60" y="470">완주 뒤 홈으로</text>
            <text x="60" y="487">저장된 자리를 지운다</text>
            <text x="596" y="336" text-anchor="middle">중단</text>
            <text x="836" y="176" text-anchor="end">홈으로 돌아간다</text>
          </g>
        </svg>
